<?xml version="1.0" encoding="utf-8"?>

<!DOCTYPE svg PUBLIC "-//W3C//DTD SVG 1.1//EN" "http://www.w3.org/Graphics/SVG/1.1/DTD/svg11.dtd">
<!-- Uploaded to: SVG Repo, www.svgrepo.com, Generator: SVG Repo Mixer Tools -->
<svg height="30px" width="30px" version="1.1" id="_x32_" xmlns="http://www.w3.org/2000/svg" xmlns:xlink="http://www.w3.org/1999/xlink" 
	 viewBox="0 0 512 512"  xml:space="preserve">
<style type="text/css">
	.st0{fill:#000000;}
</style>
<g>
	<path class="st0" d="M439.018,103.793H59.559c-12.38,0-23.465,8.068-27.234,19.803L4.048,210.39C1.295,218.723,0,227.453,0,236.325
		v123.528h86.392c1.696,26.987,23.991,48.354,51.477,48.354c27.491,0,49.79-21.367,51.478-48.354H328.52
		c1.688,26.987,24.115,48.354,51.478,48.354c27.486,0,49.782-21.367,51.456-48.354H512V176.775
		C512,136.498,479.296,103.793,439.018,103.793z M159.763,359.853c-1.551,10.692-10.816,18.91-21.894,18.91
		c-11.068,0-20.456-8.218-22.012-18.91c-0.136-1.043-0.27-2.086-0.27-3.252c0-3.518,0.778-6.778,2.483-9.774
		c3.385-7.432,11.073-12.513,19.798-12.513c8.736,0,16.29,5.081,19.808,12.513c1.577,2.996,2.351,6.256,2.351,9.774
		C160.028,357.767,159.886,358.81,159.763,359.853z M402.01,359.853c-1.554,10.692-10.944,18.91-22.012,18.91
		c-11.072,0-20.342-8.218-21.892-18.91c-0.124-1.043-0.265-2.086-0.265-3.252c0-3.518,0.773-6.778,2.35-9.774
		c3.517-7.432,11.077-12.513,19.807-12.513c8.727,0,16.414,5.081,19.799,12.513c1.706,2.996,2.483,6.256,2.483,9.774
		C402.28,357.767,402.138,358.81,402.01,359.853z M498.971,346.828h-68.272c-4.568-23.859-25.56-41.815-50.701-41.815
		c-25.021,0-46.136,17.956-50.7,41.815H188.57c-4.564-23.859-25.552-41.815-50.701-41.815c-25.14,0-46.127,17.956-50.696,41.815
		H13.029V236.325c0-7.432,1.176-14.854,3.39-22.03l28.278-86.67c2.08-6.371,8.094-10.807,14.862-10.807h379.46
		c16.556,0,31.53,6.778,42.35,17.594c10.952,10.816,17.602,25.804,17.602,42.363V346.828z"/>
	<path class="st0" d="M432.161,142.471h-39.977c-4.083,0-7.388,3.314-7.388,7.388v63.032c0,4.056,3.305,7.387,7.388,7.387h68.109
		c4.074,0,7.388-3.331,7.388-7.387v-34.896C467.68,158.421,451.743,142.471,432.161,142.471z"/>
	<path class="st0" d="M92.771,142.471H77.644c-3.195,0-6.049,2.068-7.039,5.108l-24.036,74.007
		c-1.52,4.621-2.271,9.429-2.271,14.271v37.892c0,4.065,3.314,7.37,7.396,7.37h41.077c4.074,0,7.388-3.306,7.388-7.37v-123.89
		C100.16,145.785,96.845,142.471,92.771,142.471z"/>
	<path class="st0" d="M218.46,142.471h-85.044c-2.032,0-3.685,1.67-3.685,3.712v70.393c0,2.05,1.652,3.702,3.685,3.702h85.044
		c2.054,0,3.707-1.652,3.707-3.702v-70.393C222.167,144.141,220.514,142.471,218.46,142.471z"/>
	<path class="st0" d="M345.204,142.471h-88.216c-2.037,0-3.694,1.67-3.694,3.712v70.393c0,2.05,1.657,3.702,3.694,3.702h88.216
		c2.032,0,3.685-1.652,3.685-3.702v-70.393C348.889,144.141,347.236,142.471,345.204,142.471z"/>
</g>
</svg>