<?xml version="1.0" encoding="iso-8859-1"?>
<!-- Uploaded to: SVG Repo, www.svgrepo.com, Generator: SVG Repo Mixer Tools -->
<svg fill="#000000" height="30px" width="30px" version="1.1" id="Layer_1" xmlns="http://www.w3.org/2000/svg" xmlns:xlink="http://www.w3.org/1999/xlink" 
	 viewBox="0 0 512.002 512.002" xml:space="preserve">
<g>
	<g>
		<path d="M403.394,403.396c47.053,0,85.333-38.28,85.333-85.335c0-47.053-38.28-85.333-85.333-85.333h-31.03H62.062
			c-6.972,0-13.577,3.126-17.998,8.518c-4.42,5.391-6.19,12.482-4.822,19.319l40.979,204.891H46.547
			c-12.853,0-23.273,10.42-23.273,23.273s10.42,23.273,23.273,23.273h62.06h217.211h62.06c12.853,0,23.273-10.42,23.273-23.273
			s-10.42-23.273-23.273-23.273h-33.672l12.412-62.06H403.394z M391.443,279.273h11.951c21.389,0,38.788,17.4,38.788,38.788
			c0,21.389-17.4,38.789-38.788,38.789h-27.466L391.443,279.273z M324.759,375.354c-0.011,0.057-0.023,0.115-0.036,0.172
			l-17.985,89.929H127.686v0.002L90.45,279.273h253.526L324.759,375.354z"/>
	</g>
</g>
<g>
	<g>
		<path d="M179.362,99.906c-11.408-11.408-16.454-17.005-16.452-30.087c-0.002-13.082,5.044-18.677,16.457-30.088
			c9.089-9.087,9.092-23.822,0.005-32.912c-9.087-9.09-23.823-9.092-32.912-0.005c-12.702,12.701-30.098,30.092-30.095,63.005
			c-0.005,32.912,17.388,50.303,30.088,63.001c11.411,11.411,16.457,17.008,16.457,30.09c0,12.853,10.42,23.273,23.273,23.273
			c12.853,0,23.273-10.42,23.273-23.273C209.455,129.996,192.063,112.605,179.362,99.906z"/>
	</g>
</g>
<g>
	<g>
		<path d="M287.968,99.906c-11.41-11.408-16.454-17.005-16.452-30.087c-0.002-13.082,5.044-18.677,16.457-30.088
			c9.089-9.087,9.09-23.822,0.005-32.912c-9.089-9.09-23.823-9.092-32.912-0.005c-12.702,12.701-30.098,30.092-30.095,63.005
			c-0.005,32.912,17.388,50.303,30.089,63.001c11.411,11.411,16.457,17.008,16.457,30.09c0,12.853,10.42,23.273,23.273,23.273
			s23.273-10.42,23.273-23.273C318.061,129.996,300.669,112.605,287.968,99.906z"/>
	</g>
</g>
</svg>